<?xml version="1.0" encoding="iso-8859-1"?>
<!-- Generator: Adobe Illustrator 21.1.0, SVG Export Plug-In . SVG Version: 6.00 Build 0)  -->
<svg version="1.1" id="Calque_1" xmlns="http://www.w3.org/2000/svg" xmlns:xlink="http://www.w3.org/1999/xlink" x="0px" y="0px"
	 width="432px" height="432px" viewBox="0 0 432 432" enable-background="new 0 0 432 432" xml:space="preserve">
<g>
	<g>
		<g>
			<path fill="#D4B67E" d="M206.62,194.198c-10.07-0.081-20.131-0.212-30.187-0.664c-6.227-0.28-12.459-0.517-18.676-0.954
				c-6.179-0.434-12.349-1.018-18.509-1.67c-16.145-1.707-32.054-4.784-47.858-8.442c-7.522-1.741-15.033-3.523-22.42-5.789
				c-3.767-1.155-7.43-2.583-11.013-4.214c-0.925-0.421-1.799-0.957-2.681-1.465c-0.281-0.161-0.534-0.384-0.766-0.612
				c-0.38-0.373-0.652-0.811-0.43-1.368c0.223-0.559,0.726-0.739,1.253-0.669c0.897,0.121,1.814,0.236,2.666,0.523
				c6.458,2.176,12.991,4.098,19.616,5.687c10.273,2.464,20.589,4.738,30.972,6.691c6.086,1.145,12.188,2.215,18.307,3.164
				c4.427,0.686,8.889,1.15,13.343,1.654c3.223,0.364,6.453,0.677,9.686,0.932c4.797,0.378,9.596,0.727,14.399,1.008
				c4.585,0.268,9.175,0.471,13.765,0.637c13.594,0.493,27.19,0.694,40.791,0.301c6.888-0.199,13.78-0.287,20.664-0.568
				c7.576-0.308,15.148-0.727,22.715-1.196c6.075-0.376,12.146-0.838,18.209-1.376c5.154-0.458,10.299-1.03,15.438-1.64
				c5.898-0.7,11.789-1.458,17.674-2.262c13.611-1.858,27.189-3.916,40.588-6.998c6.852-1.576,13.607-3.518,20.336-5.552
				c0.591-0.179,1.196-0.332,1.806-0.422c0.804-0.119,1.4,0.215,1.612,0.814c0.233,0.655-0.034,1.295-0.85,1.67
				c-1.056,0.486-2.157,0.877-3.241,1.302c-11.786,4.628-24.028,7.545-36.477,9.653c-7.757,1.314-15.531,2.533-23.311,3.705
				c-6.124,0.923-12.26,1.77-18.405,2.537c-5.604,0.7-11.222,1.297-16.843,1.849c-5.549,0.546-11.104,1.054-16.666,1.444
				c-6.69,0.47-13.386,0.906-20.088,1.163C230.236,193.525,218.427,193.831,206.62,194.198z"/>
		</g>
		<g>
			<path fill="#B78D5C" d="M341.201,169.629c-0.383-0.117-0.68-0.196-0.968-0.298c-2.702-0.952-4.458-2.793-5.063-5.608
				c-0.358-1.668,0.044-3.217,1.166-4.534c1.737-2.042,4.389-2.06,6.154-0.032c1.026,1.18,1.607,2.589,1.863,4.113
				c0.17,1.008,0.209,2.038,0.306,3.058c0.017,0.179,0.029,0.358,0.055,0.684c0.876-0.189,1.693-0.324,2.486-0.546
				c1.575-0.441,2.982-1.227,4.293-2.197c2.697-1.996,4.981-4.402,7.02-7.053c0.474-0.616,0.948-1.232,1.433-1.841
				c0.154-0.193,0.32-0.386,0.514-0.535c0.355-0.273,0.749-0.302,1.125-0.038c0.37,0.26,0.498,0.628,0.367,1.064
				c-0.053,0.176-0.129,0.353-0.229,0.506c-1.7,2.605-3.366,5.234-5.66,7.386c-1.618,1.519-3.365,2.854-5.32,3.913
				c-1.8,0.975-3.733,1.524-5.743,1.834c-0.18,0.028-0.358,0.067-0.568,0.106c-0.277,1.397-0.519,2.77-0.825,4.129
				c-0.54,2.402-1.248,4.75-2.438,6.926c-0.705,1.289-1.516,2.503-2.598,3.509c-1.78,1.655-3.847,2.363-6.262,1.793
				c-1.182-0.279-2.18-0.929-3.023-1.773c-0.766-0.768-1.511-1.577-2.143-2.456c-1.579-2.196-3.095-4.437-4.625-6.668
				c-2.889-4.211-6.317-7.926-10.305-11.11c-3.231-2.58-6.889-4.315-10.912-5.273c-4.282-1.02-8.14-0.021-11.625,2.544
				c-1.918,1.412-3.479,3.186-4.845,5.137c-2.124,3.033-3.64,6.368-4.835,9.847c-1.545,4.497-3.007,9.022-4.499,13.536
				c-0.645,1.953-1.382,3.87-2.448,5.633c-0.479,0.791-1.033,1.563-1.677,2.222c-1.16,1.186-2.591,1.421-4.124,0.803
				c-1.557-0.628-2.847-1.642-3.956-2.894c-1.06-1.197-1.919-2.529-2.547-3.996c-1.37-3.2-2.707-6.413-4.071-9.616
				c-0.913-2.144-1.778-4.312-2.792-6.408c-1.313-2.713-3.132-5.056-5.433-7.041c-2.594-2.238-5.608-3.397-8.963-3.785
				c-5.77-0.666-11.023,0.976-15.993,3.706c-3.733,2.05-6.992,4.751-9.985,7.766c-3.946,3.975-7.684,8.142-11.321,12.402
				c-1.777,2.081-3.543,4.174-5.383,6.2c-1.169,1.287-2.44,2.485-3.705,3.681c-1.456,1.375-3.132,2.441-4.899,3.38
				c-3.501,1.862-7.163,2.329-11.027,1.446c-2.69-0.615-5.233-1.572-7.609-2.977c-3.418-2.021-6.542-4.421-9.34-7.239
				c-2.126-2.14-4.195-4.341-6.372-6.427c-1.771-1.697-3.615-3.328-5.521-4.872c-1.943-1.574-4.127-2.771-6.532-3.522
				c-2.847-0.888-5.634-0.753-8.37,0.458c-2.137,0.946-4.01,2.278-5.591,3.974c-1.483,1.589-2.882,3.262-4.247,4.954
				c-1.289,1.596-2.473,3.277-3.727,4.901c-1.337,1.731-2.841,3.295-4.654,4.546c-1.994,1.375-4.176,2.222-6.61,2.254
				c-2.284,0.03-4.471-0.459-6.349-1.813c-0.765-0.551-1.373-1.334-1.997-2.058c-0.204-0.236-0.311-0.618-0.326-0.94
				c-0.023-0.475,0.402-0.733,0.831-0.518c0.414,0.207,0.794,0.487,1.177,0.75c3.683,2.53,7.91,2.527,11.599-0.011
				c1.712-1.178,3.098-2.684,4.359-4.314c1.485-1.918,2.908-3.887,4.451-5.757c1.403-1.7,2.882-3.346,4.42-4.925
				c1.394-1.431,3.047-2.55,4.828-3.474c4.235-2.198,8.559-2.356,12.975-0.608c2.716,1.075,5.135,2.644,7.404,4.459
				c2.629,2.103,4.994,4.489,7.346,6.889c1.502,1.533,2.998,3.072,4.531,4.574c2.14,2.096,4.496,3.924,7.026,5.529
				c2.553,1.619,5.301,2.722,8.301,3.169c1.972,0.294,3.904,0.187,5.784-0.531c2.022-0.772,3.882-1.819,5.528-3.232
				c2.129-1.829,4.065-3.851,5.851-6.011c4.144-5.011,8.376-9.942,12.88-14.636c2.98-3.106,6.151-5.982,9.667-8.474
				c4.252-3.013,8.912-5.065,14.06-5.921c4.474-0.744,8.863-0.387,13.108,1.297c3.461,1.373,6.109,3.781,8.375,6.652
				c1.923,2.436,3.314,5.18,4.488,8.038c1.676,4.083,3.331,8.174,5.005,12.258c0.702,1.713,1.603,3.305,2.988,4.569
				c0.411,0.375,0.874,0.695,1.326,1.022c0.358,0.258,0.711,0.217,0.986-0.132c0.326-0.413,0.705-0.811,0.925-1.278
				c0.647-1.375,1.31-2.752,1.818-4.182c1.78-5.007,3.456-10.051,5.251-15.053c1.339-3.729,3.083-7.266,5.398-10.504
				c1.144-1.6,2.397-3.101,3.885-4.393c5.059-4.398,10.804-5.778,17.281-3.902c5.363,1.553,10.017,4.326,14.075,8.142
				c3.345,3.146,6.333,6.586,8.818,10.459c1.125,1.753,2.284,3.487,3.506,5.173c0.633,0.874,1.399,1.664,2.174,2.42
				c1.09,1.064,2.772,0.81,3.668,0.015c0.417-0.37,0.859-0.748,1.154-1.21c0.699-1.097,1.437-2.195,1.941-3.385
				C340.161,174.984,340.704,172.361,341.201,169.629z M341.557,166.783c-0.008-2.032-0.057-3.96-1.244-5.658
				c-0.123-0.175-0.283-0.334-0.453-0.464c-0.51-0.39-0.879-0.363-1.295,0.12c-0.577,0.671-0.848,1.462-0.655,2.335
				c0.383,1.732,1.428,2.928,3.072,3.592C341.113,166.762,341.272,166.749,341.557,166.783z"/>
			<path fill="#B78D5C" d="M219.029,257.187c-4.947-0.002-8.244-2.66-10.85-6.384c-1.635-2.335-2.355-5.055-2.811-7.836
				c-0.261-1.594-0.46-3.197-0.239-4.823c0.136-1,0.41-1.944,0.937-2.807c0.112-0.183,0.238-0.373,0.403-0.504
				c0.283-0.225,0.636-0.091,0.717,0.264c0.04,0.177,0.03,0.373,0.007,0.556c-0.324,2.646,0.179,5.2,0.844,7.737
				c0.419,1.598,0.977,3.145,1.761,4.604c1.117,2.077,2.688,3.724,4.716,4.922c1.023,0.604,2.105,1.061,3.423,1.072
				c-0.054-0.603-0.113-1.175-0.154-1.749c-0.148-2.061,0.352-3.949,1.556-5.632c0.841-1.176,2.006-1.852,3.437-2.012
				c2.665-0.299,4.945,1.661,5.145,4.363c0.131,1.778-0.425,3.305-1.609,4.616c-0.823,0.911-1.815,1.602-2.892,2.178
				c-0.299,0.16-0.599,0.318-1.009,0.536c0.196,0.373,0.363,0.727,0.561,1.062c2.11,3.564,5.03,6.297,8.605,8.35
				c4.005,2.3,8.341,3.524,12.921,3.929c5.303,0.469,10.419-0.305,15.306-2.433c2.735-1.191,5.437-2.458,8.165-3.664
				c2.944-1.301,5.994-2.259,9.206-2.601c5.117-0.544,10.043,0.081,14.675,2.475c2.499,1.292,4.542,3.142,6.452,5.158
				c0.351,0.371,0.584,0.873,0.8,1.348c0.191,0.42,0.157,0.861-0.26,1.174c-0.341,0.256-0.697,0.188-1.183-0.176
				c-1.417-1.061-2.808-2.162-4.266-3.165c-4.551-3.132-9.608-4.23-15.068-3.647c-3.785,0.404-7.329,1.621-10.778,3.164
				c-2.014,0.901-4.019,1.822-6.035,2.719c-4.048,1.801-8.279,2.786-12.715,3.005c-5.079,0.252-9.982-0.509-14.719-2.308
				c-3.612-1.372-6.848-3.378-9.674-6.034c-2.016-1.895-3.655-4.063-4.897-6.535C219.357,257.807,219.196,257.508,219.029,257.187z
				 M221.37,253.369c1.168-0.474,2.039-1.096,2.714-1.976c0.445-0.581,0.711-1.233,0.687-1.98c-0.025-0.794-0.442-1.418-1.057-1.589
				c-0.549-0.153-1.276,0.136-1.689,0.734C221.023,250.011,220.975,251.601,221.37,253.369z"/>
		</g>
		<g>
			<g>
				<path fill="#D4B67E" d="M66.059,213.081c0.997,4.306,3.08,8.152,6.099,11.375c1.213,1.295,3.155-0.654,1.945-1.945
					c-2.709-2.891-4.499-6.305-5.392-10.161C68.312,210.626,65.659,211.356,66.059,213.081L66.059,213.081z"/>
			</g>
			<g>
				<path fill="#D4B67E" d="M202.134,258.549c-1.581,2.673-4.006,4.608-6.974,5.529c-1.685,0.523-0.966,3.179,0.731,2.652
					c3.647-1.131,6.673-3.504,8.618-6.793C205.412,258.41,203.035,257.024,202.134,258.549L202.134,258.549z"/>
			</g>
			<g>
				<path fill="#D4B67E" d="M328.303,235.127c2.854,2.88,6.27,4.965,10.124,6.221c1.687,0.55,2.41-2.106,0.731-2.652
					c-3.41-1.111-6.387-2.967-8.91-5.513C329,231.923,327.055,233.868,328.303,235.127L328.303,235.127z"/>
			</g>
			<g>
				<path fill="#D4B67E" d="M283.181,273.534c1.19,1.777,2.818,3.044,4.822,3.784c0.697,0.257,1.507-0.288,1.692-0.961
					c0.211-0.768-0.261-1.433-0.961-1.692c-1.295-0.478-2.411-1.375-3.178-2.52C284.576,270.682,282.192,272.058,283.181,273.534
					L283.181,273.534z"/>
			</g>
			<g>
				<path fill="#D4B67E" d="M121.476,242.522c-0.881,1.265-2.074,2.203-3.456,2.866c-0.67,0.321-0.847,1.278-0.493,1.882
					c0.4,0.685,1.21,0.816,1.882,0.493c1.814-0.87,3.297-2.208,4.443-3.853C124.865,242.455,122.482,241.078,121.476,242.522
					L121.476,242.522z"/>
			</g>
		</g>
	</g>
	<g>
		<path d="M89.476,222.734c0.119-1.357,0.224-2.715,0.358-4.071c0.264-2.668,0.703-5.299,1.659-7.821
			c0.688-1.814,1.58-3.517,2.783-5.043c0.968-1.228,2.213-1.883,3.813-1.735c1.1,0.101,2.017,0.592,2.807,1.339
			c0.993,0.938,1.644,2.103,2.146,3.353c0.909,2.26,1.442,4.623,1.867,7.014c0.797,4.484,0.974,9.018,1.154,13.556
			c0.117,2.95,0.339,5.895,0.526,8.842c0.021,0.332,0.116,0.659,0.216,1.199c0.362-0.409,0.641-0.65,0.829-0.949
			c0.893-1.42,1.771-2.851,2.627-4.294c0.106-0.178,0.138-0.504,0.047-0.68c-2.096-4.049-1.822-8.229-0.677-12.441
			c0.618-2.275,1.631-4.38,3.214-6.148c0.72-0.803,1.528-1.564,2.413-2.174c1.884-1.299,3.951-1.78,6.236-0.914
			c0.179-0.201,0.349-0.413,0.541-0.604c0.656-0.652,1.528-0.719,2.147-0.037c0.401,0.441,0.745,1.026,0.878,1.601
			c0.327,1.419,0.549,2.866,0.756,4.309c0.515,3.598,0.952,7.207,1.518,10.797c0.226,1.435,0.698,2.832,1.08,4.241
			c0.112,0.415,0.298,0.811,0.535,1.442c0.217-0.469,0.378-0.746,0.477-1.044c0.646-1.954,1.108-3.951,1.278-6.004
			c0.205-2.478,0.378-4.958,0.562-7.438c0.204-2.756,0.881-5.392,2.022-7.908c0.153-0.338,0.324-0.675,0.531-0.982
			c0.824-1.219,2.142-1.529,3.428-0.816c0.88,0.488,1.453,1.25,1.853,2.153c0.199,0.45,0.375,0.911,0.612,1.489
			c0.155-0.349,0.267-0.585,0.366-0.826c0.658-1.588,1.454-3.095,2.559-4.424c0.763-0.917,1.627-1.712,2.699-2.262
			c2.403-1.232,4.987-0.768,6.785,1.247c1.346,1.508,2.007,3.343,2.419,5.281c0.503,2.365,0.536,4.76,0.283,7.15
			c-0.199,1.88-0.52,3.747-0.806,5.753c0.893,0.694,2.051,0.978,3.344,1.297c0.063-0.555,0.12-1.035,0.173-1.516
			c0.449-4.109,0.863-8.223,1.368-12.325c0.155-1.255,0.545-2.484,0.865-3.716c0.15-0.578,0.383-1.162,1.11-1.217
			c0.737-0.056,1.124,0.452,1.424,1.019c0.548,1.037,0.76,2.17,0.829,3.324c0.084,1.396,0.111,2.795,0.158,4.193
			c0.009,0.27,0.001,0.541,0.174,0.877c0.175-0.268,0.359-0.531,0.524-0.805c1.387-2.307,3.025-4.41,5.057-6.188
			c1.204-1.053,2.526-1.914,4.049-2.44c3.12-1.078,5.898,0.236,7.059,3.336c0.522,1.394,0.66,2.844,0.601,4.313
			c-0.165,4.104-1.239,7.967-3.148,11.601c-0.086,0.164-0.164,0.331-0.275,0.553c0.822,0.915,1.854,1.514,3.025,2.14
			c0.118-0.827,0.209-1.556,0.328-2.281c0.559-3.409,1.365-6.761,2.381-10.061c0.218-0.709,0.528-1.395,0.859-2.06
			c0.175-0.352,0.448-0.681,0.745-0.942c0.811-0.711,1.866-0.544,2.347,0.426c0.252,0.509,0.373,1.121,0.402,1.695
			c0.105,2.059-0.18,4.096-0.475,6.127c-0.356,2.46-0.772,4.912-1.115,7.374c-0.106,0.764-0.075,1.55-0.07,2.326
			c0.002,0.266,0.116,0.531,0.184,0.816c0.849-0.045,1.37-0.546,1.871-1.042c1.269-1.256,2.333-2.682,3.149-4.262
			c1.055-2.043,2.081-4.105,2.996-6.213c1.176-2.707,2.226-5.469,3.336-8.204c0.292-0.719,0.559-1.455,0.922-2.138
			c0.789-1.487,2.477-1.607,3.502-0.269c0.612,0.799,0.83,1.755,0.808,2.726c-0.04,1.801-0.03,3.619-0.288,5.395
			c-0.907,6.242-1.874,12.477-2.909,18.699c-0.509,3.063-1.172,6.103-1.853,9.134c-0.474,2.107-1.369,4.066-2.582,5.858
			c-1.423,2.102-3.374,3.442-5.884,3.942c-1.368,0.273-2.658,0-3.912-0.528c-1.16-0.488-2.184-1.198-3.081-2.071
			c-0.913-0.889-1.775-1.83-2.674-2.734c-0.877-0.881-1.746-1.773-2.665-2.609c-1.215-1.105-2.669-1.812-4.215-2.332
			c-1.321-0.444-2.643-0.23-3.963,0.023c-0.273,0.053-0.572,0.168-0.82,0.104c-0.266-0.069-0.608-0.271-0.692-0.499
			c-0.084-0.227,0.072-0.575,0.199-0.833c0.07-0.143,0.287-0.227,0.452-0.308c2.372-1.165,4.798-1.398,7.315-0.478
			c2.532,0.926,4.658,2.467,6.622,4.265c0.895,0.819,1.737,1.701,2.676,2.464c0.667,0.542,1.43,0.986,2.2,1.375
			c0.815,0.411,1.63,0.245,2.379-0.273c0.628-0.434,1.17-0.959,1.455-1.664c0.452-1.12,0.932-2.244,1.232-3.409
			c1.205-4.668,2.02-9.417,2.808-14.17c0.61-3.679,1.192-7.363,1.782-11.045c0.036-0.226,0.039-0.457-0.069-0.717
			c-0.149,0.334-0.296,0.668-0.446,1.001c-0.983,2.181-1.883,4.406-2.98,6.529c-0.809,1.566-1.808,3.048-2.855,4.471
			c-0.616,0.837-1.423,1.576-2.262,2.199c-2.21,1.641-4.98,0.964-6.219-1.497c-0.344-0.683-0.509-1.46-0.721-2.203
			c-0.078-0.274-0.11-0.518-0.405-0.677c-1.229-0.662-2.443-1.35-3.729-2.064c-0.311,0.384-0.656,0.818-1.009,1.245
			c-1.091,1.315-2.39,2.358-4,2.969c-0.881,0.335-1.782,0.522-2.738,0.303c-1.032-0.236-1.871-0.764-2.326-1.709
			c-0.931-1.938-1.128-3.931-0.152-5.93c0.812-1.664,2.157-2.459,4.003-2.289c0.794,0.073,1.574,0.292,2.446,0.461
			c0.25-0.537,0.533-1.086,0.764-1.656c0.931-2.293,1.507-4.676,1.644-7.147c0.046-0.829-0.037-1.679-0.167-2.502
			c-0.136-0.857-0.463-1.079-1.308-0.846c-0.831,0.229-1.665,0.532-2.418,0.947c-1.934,1.068-3.476,2.607-4.828,4.335
			c-1.271,1.625-2.276,3.413-3.137,5.282c-0.139,0.302-0.216,0.651-0.244,0.984c-0.327,3.997-0.64,7.994-0.954,11.992
			c-0.29,3.688-0.586,7.375-0.86,11.064c-0.101,1.364-0.095,2.736-0.227,4.097c-0.159,1.637-0.407,3.266-0.63,4.896
			c-0.038,0.274-0.126,0.546-0.223,0.807c-0.459,1.244-1.561,1.884-2.79,1.633c-1.119-0.228-1.923-1.319-1.875-2.567
			c0.164-4.193,0.258-8.39,0.523-12.577c0.243-3.846,0.672-7.68,1.021-11.52c0.095-1.045,0.197-2.09,0.29-3.075
			c-1.372-0.368-2.643-0.708-3.99-1.069c-0.092,0.201-0.232,0.508-0.372,0.814c-0.749,1.636-1.735,3.094-3.2,4.175
			c-0.963,0.711-1.999,1.26-3.253,1.228c-1.254-0.031-2.204-0.571-2.841-1.654c-1.246-2.119-1.065-5.464,0.391-7.444
			c0.743-1.01,1.75-1.567,2.966-1.761c0.548-0.087,1.104-0.118,1.738-0.182c0.072-0.445,0.155-0.896,0.216-1.35
			c0.386-2.877,0.545-5.762,0.095-8.644c-0.123-0.787-0.386-1.571-0.709-2.301c-0.373-0.843-0.956-1.079-1.837-0.812
			c-0.496,0.15-0.982,0.397-1.41,0.692c-1.095,0.753-1.899,1.78-2.57,2.917c-0.895,1.515-1.449,3.162-1.842,4.865
			c-0.082,0.356-0.08,0.744-0.051,1.112c0.352,4.469,0.387,8.946,0.424,13.425c0.039,4.79,0.174,9.579,0.2,14.368
			c0.009,1.612-0.182,3.226-0.299,4.838c-0.022,0.306-0.105,0.615-0.202,0.908c-0.324,0.977-1.135,1.594-2.074,1.601
			c-0.901,0.007-1.736-0.549-2.06-1.484c-0.212-0.612-0.313-1.264-0.436-1.904c-0.784-4.055-0.75-8.167-0.826-12.269
			c-0.073-3.949-0.023-7.902-0.125-11.85c-0.1-3.854-0.323-7.705-0.496-11.557c-0.009-0.201-0.061-0.399-0.252-0.63
			c-0.13,0.333-0.277,0.659-0.387,0.998c-0.669,2.062-0.777,4.206-0.952,6.346c-0.268,3.282-0.569,6.562-0.908,9.837
			c-0.099,0.953-0.32,1.904-0.588,2.826c-0.205,0.707-0.486,1.422-0.882,2.038c-0.822,1.283-2.246,1.606-3.598,0.902
			c-0.936-0.487-1.689-1.208-2.175-2.123c-0.624-1.175-1.206-2.387-1.654-3.637c-0.427-1.194-0.658-2.458-0.977-3.69
			c-0.06-0.23-0.131-0.457-0.258-0.898c-0.257,1.395-0.413,2.582-0.705,3.734c-0.305,1.2-0.63,2.418-1.143,3.538
			c-1.55,3.387-4.642,4.164-7.68,2.009c-0.272-0.193-0.542-0.39-0.911-0.657c-0.432,0.897-0.829,1.729-1.232,2.558
			c-0.462,0.95-0.897,1.914-1.407,2.837c-0.267,0.483-0.627,0.933-1.019,1.323c-1.158,1.151-2.545,1.25-3.888,0.315
			c-1.084-0.755-1.775-1.815-2.262-3.018c-0.636-1.569-1-3.214-1.12-4.89c-0.237-3.318-0.382-6.642-0.581-9.963
			c-0.23-3.848-0.363-7.708-1.126-11.5c-0.244-1.212-0.586-2.421-1.038-3.57c-0.621-1.581-1.331-1.681-2.511-0.429
			c-1.418,1.505-2.27,3.329-2.819,5.301c-0.619,2.225-0.947,4.507-1.107,6.801c-0.191,2.728-0.26,5.465-0.368,8.198
			c-0.013,0.337,0.06,0.677,0.089,1.017c0.032,0.37,0.103,0.744,0.079,1.111c-0.067,1.013-0.737,1.837-1.683,2.135
			c-0.951,0.299-1.97,0.02-2.603-0.777c-0.266-0.335-0.472-0.732-0.638-1.129c-1.673-3.99-2.985-8.102-4.125-12.273
			c-1.32-4.829-2.5-9.687-3.308-14.632c-0.915-5.606-1.343-11.243-1.02-16.914c0.454-7.963,2.697-15.398,6.854-22.228
			c1.662-2.73,3.659-5.176,6.191-7.161c3.019-2.367,6.435-3.601,10.276-3.584c4.909,0.022,8.72,3.479,9.307,8.339
			c0.365,3.025-0.086,5.956-0.942,8.834c-2.063,6.939-5.557,13.015-10.997,17.879c-2.507,2.242-5.278,4.054-8.58,4.911
			c-0.597,0.155-1.219,0.225-1.834,0.297c-0.323,0.038-0.645-0.062-0.738-0.427c-0.096-0.377,0.167-0.57,0.468-0.702
			c0.256-0.112,0.515-0.224,0.783-0.3c3.791-1.065,6.926-3.2,9.621-6.002c5.274-5.485,8.336-12.074,9.559-19.543
			c0.226-1.378,0.234-2.783,0.062-4.184c-0.538-4.372-3.354-6.453-7.686-5.73c-1.997,0.333-3.794,1.167-5.401,2.403
			c-1.718,1.322-3.136,2.92-4.345,4.713c-2.426,3.598-3.999,7.58-5.18,11.722c-1.529,5.365-2.139,10.846-1.894,16.42
			c0.293,6.676,1.493,13.211,3.113,19.674c0.755,3.013,1.649,5.991,2.482,8.985c0.074,0.265,0.172,0.523,0.258,0.784
			C89.35,222.743,89.413,222.738,89.476,222.734z M120.992,214.698c-1.637,0.213-2.858,0.95-3.851,2.082
			c-1.079,1.23-1.832,2.649-2.339,4.201c-0.572,1.754-0.843,3.565-0.892,5.399c-0.051,1.902,0.163,3.779,0.862,5.574
			c0.285,0.733,0.667,1.405,1.282,1.912c0.496,0.409,0.951,0.458,1.433,0.043c0.414-0.356,0.825-0.783,1.062-1.265
			c0.45-0.914,0.895-1.861,1.125-2.846c0.458-1.959,0.815-3.945,1.128-5.934c0.275-1.744,0.541-3.494,0.37-5.279
			c-0.1-1.048-0.088-2.106-0.129-3.16C121.034,215.212,121.013,215.001,120.992,214.698z M148.187,224.113
			c-1.074,0.005-1.986,0.172-2.561,1.111c-0.694,1.133-0.552,3.091,0.294,4.206C146.996,228.722,147.982,226.453,148.187,224.113z
			 M171.583,225.42c-1.365-0.659-2.625-0.28-3.071,0.424c-0.626,0.987-0.54,2.318,0.268,3.123
			C169.673,228.457,170.825,227.008,171.583,225.42z"/>
		<path d="M311.854,202.233c-0.428,0.962-0.842,1.93-1.287,2.884c-0.723,1.547-1.415,3.113-2.223,4.615
			c-0.452,0.84-1.065,1.607-1.688,2.337c-1.009,1.182-2.362,1.8-3.869,2.077c-1.699,0.312-3.12-0.292-4.351-1.421
			c-1.367-1.254-2.211-2.832-2.764-4.579c-0.781-2.47-1.219-5.011-1.48-7.581c-0.386-3.804-0.729-7.612-1.13-11.415
			c-0.186-1.762-0.457-3.524-1.116-5.181c-0.341-0.856-0.79-1.692-1.319-2.446c-0.629-0.895-1.191-0.992-2.189-0.528
			c-0.445,0.207-0.882,0.477-1.25,0.801c-2.735,2.408-3.973,5.411-3.54,9.063c0.042,0.355,0.235,0.758-0.207,1.003
			c-0.31,0.171-0.761-0.051-1.041-0.572c-0.218-0.406-0.379-0.852-0.505-1.297c-0.569-2.009-0.422-4.009,0.211-5.969
			c0.739-2.288,1.992-4.278,3.709-5.962c1.065-1.044,2.311-1.759,3.809-2.024c1.635-0.289,3.086,0.096,4.389,1.081
			c1.245,0.941,2.095,2.199,2.766,3.586c0.86,1.779,1.404,3.668,1.652,5.614c0.44,3.452,0.816,6.913,1.134,10.378
			c0.356,3.877,0.834,7.726,2.053,11.444c0.174,0.529,0.374,1.054,0.613,1.557c0.213,0.448,0.618,0.642,1.09,0.445
			c0.451-0.188,0.957-0.376,1.279-0.716c0.723-0.762,1.435-1.563,1.997-2.446c1.972-3.1,3.607-6.386,5.177-9.703
			c0.165-0.35,0.22-0.775,0.234-1.169c0.107-2.921,0.176-5.844,0.285-8.765c0.107-2.869,0.528-5.695,1.327-8.454
			c0.186-0.642,0.486-1.296,0.895-1.818c0.761-0.971,1.683-0.858,2.318,0.209c0.537,0.901,0.754,1.917,0.832,2.938
			c0.133,1.734,0.238,3.474,0.243,5.212c0.017,6.126-0.076,12.253-0.002,18.379c0.042,3.541,0.334,7.08,0.493,10.62
			c0.097,2.143,0.155,4.288,0.234,6.432c0.008,0.212,0.042,0.422,0.072,0.715c0.344-0.07,0.651-0.1,0.935-0.198
			c0.763-0.264,1.532-0.522,2.269-0.847c1.795-0.792,1.745-0.805,1.66-2.728c-0.203-4.583,0.784-8.901,3.113-12.867
			c0.529-0.901,1.24-1.71,1.957-2.478c0.435-0.466,1.004-0.848,1.579-1.136c2.17-1.089,4.325,0.019,4.816,2.405
			c0.232,1.126,0.146,2.231-0.118,3.325c-0.977,4.047-2.901,7.592-5.762,10.612c-0.453,0.478-0.608,0.917-0.503,1.561
			c0.225,1.384,0.511,2.736,1.263,3.987c0.972-0.208,1.683-0.746,2.251-1.454c0.68-0.848,1.294-1.749,1.941-2.623
			c0.629-0.848,1.264-1.692,1.896-2.537c0.56-0.749,1.024-1.511,1.191-2.484c0.455-2.658,1.456-5.134,2.752-7.492
			c0.708-1.288,1.554-2.475,2.609-3.505c0.245-0.239,0.493-0.476,0.759-0.689c1.686-1.35,3.504-1.997,5.643-0.971
			c0.117-0.246,0.212-0.471,0.33-0.683c0.166-0.298,0.319-0.61,0.531-0.873c0.32-0.397,0.722-0.724,1.278-0.6
			c0.557,0.124,0.822,0.583,0.891,1.089c0.156,1.137,0.318,2.281,0.351,3.425c0.069,2.392-0.003,4.79,0.094,7.18
			c0.077,1.895,0.376,3.775,1.066,5.562c0.183,0.475,0.441,0.922,0.664,1.382c0.076-0.002,0.153-0.004,0.229-0.006
			c0.212-0.43,0.496-0.841,0.622-1.295c0.408-1.465,0.808-2.935,1.12-4.422c0.621-2.958,0.858-5.961,1.019-8.977
			c0.118-2.211,0.117-4.41-0.089-6.611c-0.04-0.431-0.107-0.859-0.176-1.405c-0.422,0.057-0.808,0.111-1.195,0.161
			c-1.412,0.184-2.805,0.157-4.096-0.526c-1.611-0.852-2.569-2.15-2.498-4.039c0.078-2.067,2.317-4.33,4.38-4.426
			c1.19-0.055,2.175,0.44,2.965,1.322c0.716,0.8,1.183,1.745,1.569,2.736c0.133,0.342,0.274,0.681,0.421,1.044
			c1.137-0.244,2.217-0.522,3.314-0.701c3.206-0.525,5.84,0.878,7.249,3.826c0.761,1.591,1.098,3.296,1.293,5.033
			c0.295,2.641,0.119,5.274-0.08,7.914c-0.199,2.634-0.325,5.274-0.423,7.914c-0.034,0.895,0.102,1.799,0.183,2.696
			c0.025,0.272,0.125,0.537,0.199,0.838c0.645-0.135,1.125-0.471,1.529-0.898c0.705-0.745,1.387-1.511,2.06-2.285
			c0.574-0.661,0.945-0.845,1.402-0.63c0.511,0.241,0.708,0.841,0.441,1.64c-0.165,0.494-0.417,0.97-0.695,1.413
			c-0.628,0.999-1.276,1.987-1.956,2.951c-0.338,0.479-0.726,0.94-1.162,1.329c-1.648,1.468-3.876,1.407-5.481-0.111
			c-0.741-0.701-1.216-1.566-1.55-2.517c-0.552-1.574-0.791-3.21-0.733-4.863c0.089-2.547,0.255-5.092,0.441-7.635
			c0.22-3.008,0.586-6.009,0.441-9.031c-0.047-0.986-0.196-1.983-0.441-2.939c-0.314-1.227-1.115-1.764-2.366-1.606
			c-0.973,0.123-1.925,0.412-2.926,0.636c0.204,1.498,0.42,2.873,0.575,4.255c0.653,5.831,0.833,11.657-0.26,17.462
			c-0.248,1.318-0.56,2.626-1.261,3.784c-0.382,0.63-0.83,1.255-1.37,1.748c-1.421,1.296-3.295,1.381-4.898,0.315
			c-0.929-0.618-1.596-1.469-2.14-2.426c-0.182-0.321-0.35-0.65-0.632-1.175c-0.142,0.468-0.236,0.766-0.324,1.066
			c-0.545,1.852-1.408,3.529-2.837,4.851c-0.517,0.479-1.115,0.913-1.749,1.214c-2.044,0.969-4.186,0.447-5.621-1.299
			c-0.743-0.905-1.197-1.957-1.517-3.072c-0.077-0.267-0.149-0.535-0.256-0.921c-0.178,0.227-0.313,0.366-0.409,0.527
			c-0.607,1.013-1.18,2.047-1.812,3.044c-0.742,1.171-1.711,2.133-2.889,2.871c-2.124,1.329-4.325,0.947-5.88-1.014
			c-0.685-0.864-1.138-1.849-1.474-2.892c-0.102-0.317-0.211-0.632-0.297-0.89c-1.785,0.611-3.508,1.2-5.371,1.837
			c-0.008,0.173-0.032,0.505-0.038,0.837c-0.065,3.734-0.24,7.457-1.029,11.125c-0.927,4.307-2.51,8.339-5.158,11.882
			c-0.999,1.337-2.141,2.594-3.36,3.735c-3.055,2.859-6.713,4.446-10.892,4.77c-2.013,0.156-4.036,0.367-6.047,0.314
			c-2.638-0.07-5.27-0.36-7.903-0.584c-4.087-0.347-8.162-0.857-12.278-0.787c-4.595,0.077-9.098,0.707-13.519,1.983
			c-2.673,0.771-4.855,2.33-6.941,4.071c-0.231,0.192-0.343,0.525-0.57,0.724c-0.188,0.166-0.465,0.322-0.702,0.321
			c-0.354-0.001-0.573-0.318-0.533-0.645c0.055-0.447,0.143-0.927,0.366-1.305c0.246-0.417,0.646-0.75,1.005-1.092
			c3.33-3.182,7.228-5.319,11.686-6.501c5.577-1.478,11.238-2.11,16.992-1.839c3.445,0.162,6.884,0.458,10.327,0.682
			c3.087,0.201,6.156,0.021,9.191-0.569c2.43-0.472,4.419-1.787,6.168-3.483c2.461-2.385,4.109-5.286,5.293-8.471
			c1.28-3.442,1.87-7.022,2.037-10.674c0.232-5.071-0.028-10.135-0.277-15.199c-0.166-3.386-0.308-6.772-0.461-10.159
			c-0.009-0.207-0.025-0.414-0.038-0.621C311.993,202.26,311.924,202.247,311.854,202.233z M348.379,203.601
			c-1.028,0.108-1.611,0.35-2.239,1.237c-0.768,1.084-1.505,2.211-2.091,3.4c-1.427,2.897-2.238,5.979-2.443,9.209
			c-0.083,1.31-0.031,2.611,0.504,3.841c0.343,0.789,0.627,0.864,1.349,0.384c0.155-0.103,0.296-0.225,0.442-0.341
			c1.03-0.819,1.699-1.917,2.144-3.111c0.649-1.74,1.175-3.527,1.721-5.303c0.105-0.343,0.076-0.732,0.08-1.1
			c0.012-1.364-0.052-2.733,0.035-4.092C347.967,206.371,348.2,205.026,348.379,203.601z M332.303,203.497
			c-0.353,0.362-0.706,0.629-0.932,0.977c-0.421,0.648-0.838,1.315-1.133,2.026c-1.007,2.426-1.562,4.967-1.755,7.585
			c-0.017,0.226,0.029,0.456,0.057,0.834c0.23-0.261,0.355-0.386,0.461-0.526c1.568-2.077,2.747-4.357,3.5-6.846
			c0.205-0.679,0.341-1.389,0.416-2.094C332.985,204.811,332.932,204.154,332.303,203.497z M356.253,192.154
			c-0.341-1.253-0.73-2.214-1.39-3.051c-0.405-0.513-0.936-0.704-1.568-0.504c-0.734,0.232-1.463,1.383-1.323,2.144
			c0.052,0.283,0.202,0.619,0.419,0.784c0.359,0.272,0.794,0.55,1.223,0.6C354.428,192.22,355.261,192.154,356.253,192.154z"/>
		<path d="M274.789,227.978c-0.2,0.673-0.391,1.348-0.601,2.018c-0.679,2.163-1.341,4.332-2.06,6.483
			c-0.224,0.671-0.544,1.331-0.931,1.923c-1.263,1.931-3.523,2.276-5.339,0.829c-1.158-0.923-1.904-2.163-2.233-3.58
			c-0.308-1.324-0.445-2.691-0.596-4.046c-0.075-0.674-0.013-1.363-0.173-2.109c-0.142,0.285-0.286,0.569-0.426,0.854
			c-0.877,1.784-1.714,3.588-2.643,5.344c-0.657,1.242-1.557,2.319-2.626,3.249c-2.076,1.805-4.414,2.022-6.793,0.613
			c-0.128-0.076-0.263-0.14-0.499-0.264c-0.114,0.408-0.201,0.758-0.308,1.101c-0.378,1.214-0.674,2.464-1.175,3.626
			c-0.335,0.778-0.879,1.514-1.48,2.119c-1.271,1.28-3.01,1.386-4.524,0.399c-0.912-0.595-1.538-1.433-2.015-2.399
			c-0.906-1.836-1.367-3.794-1.609-5.812c-0.443-3.691-0.357-7.383-0.067-11.082c0.494-6.3,1.555-12.517,2.579-18.744
			c0.847-5.15,1.601-10.319,2.248-15.498c0.245-1.96,0.117-3.972,0.076-5.959c-0.014-0.667-0.231-1.345-0.449-1.986
			c-0.178-0.522-0.446-0.634-0.95-0.414c-0.505,0.22-1.001,0.509-1.424,0.86c-1.425,1.183-2.558,2.625-3.53,4.193
			c-2.058,3.321-3.586,6.889-4.862,10.569c-1.929,5.564-3.266,11.282-4.212,17.085c-0.299,1.834-0.314,3.716-0.426,5.578
			c-0.267,4.469-0.504,8.94-0.778,13.409c-0.065,1.052-0.178,2.108-0.362,3.146c-0.223,1.261-1.175,2.072-2.364,2.143
			c-1.291,0.077-2.456-0.722-2.638-2.004c-0.17-1.193-0.208-2.417-0.172-3.623c0.108-3.574,0.239-7.149,0.441-10.719
			c0.24-4.253,0.583-8.501,0.842-12.753c0.189-3.104,0.334-6.211,0.461-9.317c0.134-3.273-0.066-6.533-0.663-9.752
			c-0.213-1.148-0.637-2.267-1.064-3.361c-0.208-0.534-0.595-1.023-0.987-1.455c-0.606-0.668-1.387-0.892-2.291-0.696
			c-0.877,0.19-1.673,0.572-2.287,1.193c-0.825,0.835-1.677,1.691-2.294,2.678c-2.545,4.069-3.741,8.523-3.357,13.328
			c0.105,1.317,0.491,2.619,0.826,3.907c0.129,0.496,0.427,0.97,0.735,1.391c0.468,0.64,1.035,0.657,1.564,0.07
			c0.245-0.271,0.434-0.608,0.587-0.944c0.48-1.058,0.722-2.179,0.781-3.339c0.037-0.714,0.074-1.428,0.118-2.142
			c0.024-0.389,0.123-0.761,0.531-0.908c0.451-0.161,0.783,0.087,1.05,0.417c0.522,0.648,0.766,1.414,0.904,2.221
			c0.393,2.306,0.045,4.471-1.333,6.394c-1.081,1.509-2.594,2.072-4.416,1.741c-1.065-0.193-1.854-0.842-2.498-1.677
			c-0.992-1.284-1.515-2.771-1.854-4.336c-0.95-4.386-0.398-8.653,1.011-12.853c0.815-2.43,1.865-4.743,3.385-6.824
			c0.962-1.318,2.076-2.477,3.453-3.369c3.668-2.377,7.572-1.692,10.218,1.795c1.365,1.798,2.062,3.884,2.604,6.037
			c0.495,1.969,0.711,3.974,0.784,5.999c0.026,0.726,0.103,1.451,0.322,2.192c0.098-0.282,0.199-0.564,0.292-0.848
			c1.223-3.726,2.61-7.386,4.462-10.852c1.117-2.091,2.376-4.095,3.983-5.844c0.731-0.796,1.535-1.561,2.421-2.172
			c2.808-1.936,5.908-1.228,7.688,1.691c1.014,1.663,1.39,3.516,1.504,5.428c0.17,2.836-0.026,5.665-0.454,8.464
			c-1.026,6.696-2.155,13.376-3.187,20.071c-0.682,4.424-1.273,8.865-1.421,13.346c-0.092,2.795-0.164,5.596-0.093,8.39
			c0.032,1.286,0.414,2.565,0.67,3.841c0.064,0.317,0.258,0.607,0.393,0.911c0.668-0.098,1.017-0.504,1.333-0.918
			c0.916-1.198,1.517-2.566,2.016-3.975c0.079-0.222,0.021-0.57-0.108-0.775c-1.287-2.049-1.702-4.318-1.727-6.684
			c-0.045-4.249,0.398-8.443,1.52-12.55c0.622-2.277,1.648-4.36,3.166-6.179c0.997-1.195,2.181-2.124,3.761-2.432
			c1.663-0.325,3.004,0.209,4.027,1.535c0.978,1.267,1.296,2.766,1.247,4.308c-0.073,2.273-0.723,4.409-1.901,6.366
			c-0.303,0.504-0.642,0.997-1.029,1.439c-1.255,1.435-2.664,2.625-4.761,2.631c-0.289,1.498-0.362,2.989-0.277,4.469
			c0.081,1.42,0.331,2.832,0.533,4.244c0.048,0.333,0.18,0.661,0.316,0.972c0.491,1.121,1.332,1.427,2.417,0.833
			c0.457-0.25,0.877-0.592,1.257-0.953c1.136-1.079,2.08-2.318,2.797-3.709c1.139-2.21,2.244-4.437,3.335-6.672
			c0.2-0.411,0.27-0.887,0.387-1.336c0.282-1.081,0.535-2.171,0.847-3.244c0.12-0.41,0.322-0.817,0.57-1.166
			c0.71-0.998,2.044-1.081,2.782-0.104c0.395,0.523,0.652,1.206,0.788,1.855c0.177,0.844,0.228,1.727,0.235,2.593
			c0.017,2.115-0.02,4.23-0.042,6.345c-0.017,1.654,0.089,3.289,0.664,4.921c0.589-0.356,0.854-0.926,1.147-1.45
			c1.397-2.499,2.675-5.056,3.648-7.755c0.643-1.783,1.255-3.577,1.881-5.367c0.051-0.147,0.092-0.298,0.156-0.438
			c0.362-0.785,1.107-0.944,1.727-0.33c0.258,0.255,0.448,0.595,0.616,0.923c0.703,1.377,0.971,2.882,1.2,4.388
			c0.333,2.181,0.573,4.376,0.944,6.549c0.24,1.406,0.635,2.785,0.979,4.172c0.087,0.352,0.242,0.686,0.421,1.183
			c0.528-1.051,0.687-2.028,0.859-2.996c0.594-3.357,0.722-6.75,0.47-10.134c-0.374-5.031,0.426-9.917,1.536-14.781
			c0.075-0.33,0.182-0.665,0.341-0.961c0.34-0.631,0.944-0.892,1.562-0.729c0.571,0.151,0.954,0.623,0.927,1.343
			c-0.043,1.179-0.097,2.365-0.265,3.531c-0.438,3.042-0.308,6.073-0.029,9.116c0.335,3.654,0.659,7.313,0.427,10.988
			c-0.121,1.924-0.331,3.84-0.884,5.699c-0.295,0.991-0.718,1.923-1.361,2.74c-1.955,2.485-5.52,2.526-7.525,0.082
			c-0.923-1.125-1.47-2.447-1.908-3.815c-0.85-2.658-1.17-5.4-1.25-8.177c-0.009-0.306-0.001-0.612-0.001-0.918
			C274.948,228.008,274.869,227.993,274.789,227.978z M252.974,223.961c0.901-0.122,1.433-0.552,1.933-1.009
			c1.473-1.348,2.27-3.07,2.721-4.983c0.212-0.898,0.193-1.788-0.056-2.667c-0.15-0.529-0.324-1.066-0.895-1.384
			c-0.573,0.287-0.858,0.808-1.142,1.314c-1.029,1.832-1.599,3.828-2.042,5.863C253.296,221.997,253.162,222.912,252.974,223.961z"
			/>
	</g>
</g>
</svg>
